<?xml version="1.0" encoding="UTF-8" standalone="no"?>
<svg
   xmlns:dc="http://purl.org/dc/elements/1.1/"
   xmlns:cc="http://creativecommons.org/ns#"
   xmlns:rdf="http://www.w3.org/1999/02/22-rdf-syntax-ns#"
   xmlns:svg="http://www.w3.org/2000/svg"
   xmlns="http://www.w3.org/2000/svg"
   xml:space="preserve"
   enable-background="new 0 0 612 792"
   viewBox="0 0 162.22701 77.709"
   height="77.709"
   width="162.22701"
   y="0px"
   x="0px"
   id="Layer_1"
   version="1.1"><metadata
   id="metadata23"><rdf:RDF><cc:Work
       rdf:about=""><dc:format>image/svg+xml</dc:format><dc:type
         rdf:resource="http://purl.org/dc/dcmitype/StillImage" /><dc:title></dc:title></cc:Work></rdf:RDF></metadata><defs
   id="defs21">
	
	
	
	
	
	
	
</defs>
<path
   d="M 45.433,0.001 H 41.059 22.843 c -4.67,0 -7.445,2.268 -8.325,6.803 -0.88,4.534 1.624,9.509 7.513,14.924 3.571,2.809 2.962,4.146 -1.828,4.011 H 0 v 10.913 h 31.98 c 5.28,-0.879 7.969,-3.587 8.071,-8.122 0.102,-4.535 -2.589,-9.205 -8.071,-14.012 -3.062,-2.538 -2.419,-3.739 1.929,-3.603 h 7.149 4.374 7.25 v 25.736 h 11.93 V 10.915 H 76.237 V 0 H 45.433 Z"
   id="path4"
   style="clip-rule:evenodd;fill:#ffffff;fill-rule:evenodd" /><path
   d="M 73.97,36.652 86.027,0.001 h 18.198 l 12.261,36.651 h -13.86 l -2.309,-6.599 H 89.428 l -2.311,6.599 z M 95.164,8.123 89.91,22.642 h 10.103 z"
   id="path6"
   style="clip-rule:evenodd;fill:#ffffff;fill-rule:evenodd" /><path
   d="M 115.943,36.652 V 0.001 h 23.858 c 2.945,0.271 5.364,1.049 7.259,2.335 1.896,1.286 3.284,3.012 4.164,5.178 0.677,3.249 0.71,5.753 0.101,7.513 -0.609,1.76 -1.675,3.232 -3.198,4.417 -1.521,1.184 -3.705,2.115 -6.547,2.792 l 2.739,3.504 h 17.908 v 10.913 h -21.41 L 129.192,24.546 V 36.653 H 115.943 Z M 129.192,9.139 v 6.751 h 9.239 c 0.492,0 1.024,-0.182 1.6,-0.545 0.574,-0.364 0.88,-1.282 0.914,-2.754 -0.085,-1.404 -0.429,-2.331 -1.028,-2.779 -0.601,-0.448 -1.105,-0.672 -1.511,-0.672 h -9.214 z"
   id="path8"
   style="clip-rule:evenodd;fill:#ffffff;fill-rule:evenodd" /><polygon
   transform="translate(-224.265,-357.523)"
   points="236.194,398.58 241.219,414.418 245.584,398.58 256.549,398.58 261.651,414.418 265.053,398.58 276.981,398.58 267.794,435.232 255.864,435.232 251.22,419.697 247.362,435.232 235.432,435.232 224.265,398.58 "
   id="polygon10"
   style="clip-rule:evenodd;fill:#ffffff;fill-rule:evenodd" /><path
   d="M 47.243,77.709 59.299,41.057 h 18.199 l 12.26,36.652 h -13.86 l -2.309,-6.6 H 62.7 l -2.311,6.6 z M 68.437,49.18 63.183,63.698 h 10.102 z"
   id="path12"
   style="clip-rule:evenodd;fill:#ffffff;fill-rule:evenodd" /><path
   d="m 148.458,51.971 13.688,-0.057 V 41 l -24.756,0.057 c -4.671,0 -7.444,2.268 -8.325,6.803 -0.879,4.535 1.625,9.51 7.514,14.924 3.57,2.809 2.961,4.146 -1.828,4.012 h -17.158 l -2.742,-3.504 c 2.844,-0.676 5.027,-1.607 6.55,-2.791 1.523,-1.186 2.588,-2.656 3.197,-4.416 0.609,-1.762 0.576,-4.266 -0.102,-7.514 -0.879,-2.166 -2.267,-3.893 -4.162,-5.178 -1.895,-1.287 -4.313,-2.064 -7.26,-2.336 H 89.215 v 36.652 h 13.25 V 65.602 l 11.625,12.107 h 0.457 22.641 9.34 c 5.28,-0.881 7.97,-3.588 8.07,-8.123 0.103,-4.535 -2.588,-9.205 -8.07,-14.01 -3.062,-2.538 -2.419,-3.74 1.93,-3.605 z m -35.155,4.43 c -0.575,0.363 -1.107,0.545 -1.599,0.545 h -9.239 v -6.752 h 9.213 c 0.407,0 0.91,0.225 1.51,0.674 0.603,0.447 0.945,1.375 1.028,2.779 -0.034,1.473 -0.337,2.391 -0.913,2.754 z"
   id="path14"
   style="clip-rule:evenodd;fill:#ffffff;fill-rule:evenodd" />
</svg>